<svg xmlns="http://www.w3.org/2000/svg" viewBox="0 0 235.3 65.58"><defs><style>.cls-1,.cls-2{fill:#fff;}.cls-1{opacity:0.5;}</style></defs><title>bg-clouds</title><g id="Layer_2" data-name="Layer 2"><g id="레이어_16_사본" data-name="레이어 16 사본"><path class="cls-1" d="M18.32.72c13.8,1.49,19.44,8.45,23.85,17a16,16,0,0,1,10.32-1.18,10.9,10.9,0,0,1,7.17,5.77,33.76,33.76,0,0,1,27.83-5c10.12,2.55,16.13,10.21,18.94,19a12,12,0,0,1,7-3.3,13.85,13.85,0,0,1,7.87,1.49c2-3,5-7.31,11.62-9,6.18-1.53,13.61-.36,16.41,1.56,2.22-3.27,5.5-9.14,14.48-11.09,8.27-1.79,16.82.6,20.21,2.81C185.27,14.37,193.9-1.45,219.5.11a41.78,41.78,0,0,1,15.8,4.14V55.58H0V2.76A41.9,41.9,0,0,1,18.32.72Z"/><path class="cls-2" d="M217,6.35c-13.8,1.61-19.45,9.12-23.85,18.37a15.07,15.07,0,0,0-10.33-1.26,11.13,11.13,0,0,0-7.16,6.22c-7.18-5.17-16.55-8.45-27.83-5.39-10.11,2.75-16.13,11-18.93,20.51a11.75,11.75,0,0,0-7-3.57A13,13,0,0,0,114,42.85c-2-3.26-5-7.9-11.61-9.68C96.2,31.52,88.78,32.78,86,34.85c-2.23-3.53-5.5-9.86-14.48-12-8.28-1.94-16.82.64-20.2,3C50.07,21.09,41.43,4,15.84,5.69A39.51,39.51,0,0,0,0,10.17V65.58H235.3v-57A39,39,0,0,0,217,6.35Z"/></g></g></svg>