<svg xmlns="http://www.w3.org/2000/svg" viewBox="0 0 235.26 60"><defs><style>.cls-1{fill:#fff;}</style></defs><title>bg-cloud</title><g id="Layer_2" data-name="Layer 2"><g id="레이어_16" data-name="레이어 16"><path class="cls-1" d="M217,.77C203.15,2.39,197.5,9.9,193.1,19.15a15.06,15.06,0,0,0-10.33-1.27,11.11,11.11,0,0,0-7.16,6.23c-7.18-5.18-16.55-8.46-27.83-5.4-10.11,2.75-16.13,11-18.93,20.51a11.69,11.69,0,0,0-7-3.56A12.92,12.92,0,0,0,114,37.27c-2-3.26-5-7.9-11.61-9.68-6.19-1.65-13.61-.39-16.41,1.69-2.23-3.53-5.5-9.87-14.48-12-8.28-1.94-16.82.64-20.2,3C50,15.52,41.39-1.56,15.8.12A39.34,39.34,0,0,0,0,4.59V60H235.26V3A39,39,0,0,0,217,.77Z"/></g></g></svg>