<svg xmlns="http://www.w3.org/2000/svg" viewBox="0 0 14.4 14.4"><defs><style>.cls-1{fill:#1f93ff;}.cls-2{fill:#fff;}</style></defs><title>icon-question</title><g id="Layer_2" data-name="Layer 2"><g id="레이어_6" data-name="레이어 6"><circle class="cls-1" cx="7.2" cy="7.2" r="7.2"/><path class="cls-2" d="M6.31,9.74V9.15c0-.84.25-1.24,1.2-2.16S8.77,5.85,8.77,5.06V4.89c0-.64-.47-1.2-1.55-1.2a2.88,2.88,0,0,0-2.1.91l-.79-.87A3.77,3.77,0,0,1,7.2,2.56c1.8,0,2.87.94,2.87,2.32v.18c0,1.24-.81,1.85-1.61,2.6a1.85,1.85,0,0,0-.82,1.53v.55Zm-.06,1.18H7.73v1.46H6.25Z"/></g></g></svg>